<svg width="118" height="31" viewBox="0 0 118 31" fill="none" xmlns="http://www.w3.org/2000/svg"><path d="M105.2 24.255h-.396c0-1.188.495-2.453 1.485-3.795.462-.616 1.397-1.65 2.805-3.102h-3.036c.418-.638.627-1.397.627-2.277v-3.96c0-.572-.22-1.1-.66-1.584 1.144.066 1.694.099 1.65.099 2.266 0 4.246-.66 5.94-1.98.616.748 1.243 1.122 1.881 1.122.682 0 1.056-.374 1.122-1.122h.561c-.176 1.144-.616 2.255-1.32 3.333-.44.682-1.243 1.683-2.409 3.003h3.762c-.396.352-.594 1.089-.594 2.211v3.762c0 1.034.209 1.892.627 2.574a8.818 8.818 0 00-2.607-.396c-2.046 0-3.751.726-5.115 2.178-1.012-1.188-1.914-1.782-2.706-1.782-.968 0-1.507.572-1.617 1.716zm.957-2.838c1.056-.748 2.112-1.122 3.168-1.122.99 0 1.958.539 2.904 1.617l1.386-.297V15.51h-1.65c-.77.836-1.969 2.002-3.597 3.498-1.188 1.1-1.925 1.903-2.211 2.409zm4.356-5.511a609.414 609.414 0 003.696-3.795c1.034-1.078 1.628-1.925 1.782-2.541-.88.968-1.76 1.452-2.64 1.452-.924 0-1.661-.506-2.211-1.518l-1.452.363v6.039h.825zM95.19 24.09c-1.495-.814-2.243-1.925-2.243-3.333v-.33l-4.125 3.663a3.742 3.742 0 00-1.32-1.485c-.572-.396-1.133-.594-1.683-.594-.22 0-.572.077-1.056.231.242-.726.737-1.298 1.485-1.716V13.53c0-2.024-.473-3.168-1.42-3.432l-1.121.759-.231-.429c.946-.616 2.31-1.595 4.092-2.937 1.1.814 1.65 2.442 1.65 4.884v7.623c.462.264 1.045.792 1.749 1.584l1.947-1.65V13.53c0-2.024-.484-3.168-1.452-3.432l-1.122.759-.198-.429c.946-.616 2.31-1.595 4.092-2.937 1.1.814 1.65 2.442 1.65 4.884v6.072c0 1.034.088 1.76.264 2.178.242.55.77 1.012 1.584 1.386.506-.33 1.177-.605 2.013-.825v-9.669a5.407 5.407 0 01-1.386-1.353l-1.09.792-.23-.462c1.804-1.254 3.135-2.255 3.993-3.003.616 1.716 1.463 2.574 2.541 2.574.22 0 .506-.077.858-.231-.352.836-.924 1.452-1.716 1.848v7.095c0 1.078.231 2.068.693 2.97-.462-.11-1.078-.165-1.848-.165-2.442 0-4.565.836-6.37 2.508zm-23.415-1.122c0-1.188.572-2.013 1.716-2.475v-7.854c0-1.144-.319-2.068-.957-2.772h1.188c1.233 0 2.465-.22 3.697-.66 1.231-.44 2.2-.99 2.904-1.65a14.614 14.614 0 003.366 5.709l-7.194 4.752v2.178c1.825.198 3.277.682 4.355 1.452l.958-.726.296.396-3.695 3.168c-1.453-1.232-3.092-1.848-4.918-1.848-.594 0-1.165.11-1.716.33zm5.742-13.266l-1.022.264v7.425l4.058-2.64-3.035-5.049zm-26.9 14.85c.704-2.398 2.156-3.817 4.356-4.257v-5.841l-.627-.132c-.858 0-1.287.407-1.287 1.221-.44-.44-.66-1.067-.66-1.881 0-1.518.671-2.277 2.013-2.277.176 0 .363.011.561.033V4.587l-.726-.132c-.704 0-1.32.275-1.848.825-.506.528-.759 1.133-.759 1.815-.286-.638-.429-1.254-.429-1.848 0-1.144.374-2.101 1.122-2.871.748-.77 1.705-1.155 2.871-1.155 1.716 0 3.311 1.133 4.785 3.399.704 1.1 1.606 2.97 2.706 5.61.814.264 1.551.396 2.211.396.814 0 1.595-.209 2.343-.627V5.577c-1.166 0-2.354-.363-3.564-1.089l-.825.66-.264-.264c1.584-1.386 2.673-2.552 3.267-3.498.99.748 1.914 1.122 2.772 1.122.924 0 1.738-.33 2.442-.99 0 .946-.33 1.782-.99 2.508-.638.704-1.44 1.21-2.409 1.518V24.75c-1.606-.198-3.564-3.014-5.874-8.448a7.542 7.542 0 00-3.234-.726c-1.232 0-2.277.231-3.135.693v3.96c1.98 0 3.553.429 4.72 1.287l.428-.462.363.297c-1.32 1.342-2.244 2.475-2.772 3.399-1.188-.924-2.442-1.386-3.762-1.386-1.144 0-2.409.396-3.795 1.188zm4.818-8.811c1.1-.462 2.112-.693 3.036-.693.836 0 1.87.209 3.102.627-1.584-3.85-2.409-5.841-2.475-5.973-1.32-2.794-2.54-4.455-3.663-4.983v11.022zm11.814 3.993v-9.141c-.748.33-1.584.495-2.508.495-.858 0-1.485-.088-1.88-.264.923 2.442 1.54 4.004 1.847 4.686.902 2.068 1.75 3.476 2.541 4.224zm-33.873 3.234c0-1.188.572-2.013 1.716-2.475v-7.854c0-1.144-.32-2.068-.957-2.772h1.188c1.232 0 2.464-.22 3.696-.66 1.232-.44 2.2-.99 2.904-1.65a14.614 14.614 0 003.366 5.709l-7.194 4.752v2.178c1.826.198 3.278.682 4.356 1.452l.957-.726.297.396-3.696 3.168c-1.452-1.232-3.091-1.848-4.917-1.848-.594 0-1.166.11-1.716.33zm5.742-13.266l-1.023.264v7.425l4.059-2.64-3.036-5.049zM18.759 22.638c.132-1.012.759-1.76 1.88-2.244V5.61c0-1.342-.318-2.332-.956-2.97C21.355 2.134 22.96 1.254 24.5 0c-.638 1.694-.957 3.927-.957 6.699v4.95L28.56 7.59c.814 1.364 1.705 2.046 2.673 2.046.396 0 .825-.143 1.287-.429-.11.88-.583 1.628-1.42 2.244v8.481c0 1.078.199 2.002.595 2.772a6.726 6.726 0 00-1.782-.264c-.594 0-1.111.154-1.551.462-.418.286-.627.605-.627.957 0 .308.319.836.957 1.584.66.748.99 1.474.99 2.178 0 .726-.231 1.331-.693 1.815-.44.484-1.034.748-1.782.792.66-.55.99-1.32.99-2.31 0-.704-.165-1.507-.495-2.409-.308-.88-.462-1.397-.462-1.551 0-.308.154-.671.462-1.089.308-.44.462-.869.462-1.287v-9.669c-.638-.154-1.342-.693-2.112-1.617l-2.508 2.013v8.085c.88.352 1.694.847 2.442 1.485-1.452.682-2.618 1.474-3.498 2.376-.704-1.232-1.65-1.848-2.838-1.848-.198 0-.495.077-.891.231zM0 6.006c.198-1.628.726-2.794 1.584-3.498.88-.726 2.178-1.089 3.894-1.089 1.122 0 2.717.143 4.785.429 2.068.264 3.553.396 4.455.396 1.43 0 2.53-.165 3.3-.495-.638 1.496-1.727 2.563-3.267 3.201v14.058c.682-.616 1.375-1.386 2.079-2.31-.484 2.442-1.507 4.367-3.069 5.775-1.54 1.408-3.377 2.112-5.511 2.112-2.354 0-4.29-.759-5.808-2.277C.858 20.746.066 18.711.066 16.203c0-4.4 1.738-7.788 5.214-10.164-1.606 2.442-2.409 4.939-2.409 7.491 0 2.332.55 4.18 1.65 5.544 1.1 1.364 2.519 2.046 4.257 2.046 1.782 0 3.619-.583 5.511-1.749V5.082c-.902.22-1.661.33-2.277.33-.506 0-1.76-.11-3.762-.33-2.002-.22-3.718-.33-5.148-.33C1.54 4.752.506 5.17 0 6.006zm7.194 13.761c.506-.506.759-1.364.759-2.574V9.108l-1.155.594v-.627c1.342-.66 2.761-1.518 4.257-2.574v8.283c0 1.254-.286 2.244-.858 2.97-.55.704-1.551 1.375-3.003 2.013z" fill="#000"/></svg>