<?xml version="1.0" encoding="UTF-8"?>
<svg version="1.1" viewBox="0 0 2000 880" width="1280" height="1280" xmlns="http://www.w3.org/2000/svg">
<path transform="translate(767,263)" d="m0 0h983l-1 9-16 89-21 115-10 56-5 27-2 4h-892l1-9 5-21 4-23 2-15 1-13v-51l-3-30-6-32-7-26-7-21-9-22-11-24-6-11z" fill="#F91211"/>
<path transform="translate(403,242)" d="m0 0h42l26 4 24 7 16 6 16 7 18 11 16 12 12 11 15 15 12 16 12 20 8 15 11 28 5 21 3 18 1 14v17l-2 22-4 21-8 26-9 20-8 15-10 14-9 11-12 14-14 13-13 10-17 11-23 12-22 8-24 6-19 3-13 1h-18l-21-1-10-2-16-4-28-10-17-8-20-12-14-11-14-12-9-9-9-11-10-13-11-18-8-16-6-15-7-23-5-28-1-7v-34l2-10 2-15 7-26 6-15 8-17 9-15 10-14 11-13 11-12 8-7 16-12 15-10 23-12 25-9 20-5z" fill="#5D90DA"/>
<path transform="translate(403,242)" d="m0 0h42l26 4 24 7 16 6 16 7 18 11 16 12 12 11 15 15 11 15-1 2-17 2-5 3-1 1 1 7 6 12v6l-4 6-4 3-8 1-9-4-5-6-4-10-3-3h-8l-10 6-8 8-9 6-2 1h-9l-8-7-6-12-1-10 4-7 10-4 12-4 3-2v-5l-4-1-9-1-2-5-4-2-12-3-14 1-12 2-15 1-33 11-5 5-7 3-3 5v14l-4 8-7 6-5 2h-10l-13-5-9-1-1 18-4 4-12 4-11 3-4 2-6 10-5 24-3 10-4 6-5 4-9 2-17-1h-11l-9 3-3 6v7l4 4 7-1 7-4 7 1 6 5 7 11 5 4 6-1 8-6 5-5 6-4h8l4 5 5 11 8-1 15-10h8l8 4 11 11 4 5 13 8 17 9 9 7 7 9 2 6v8l-5 10-11 9-3 5v15l-5 5-9 5-3 4-3 17-5 12-5 11-2 7 1 9 2 5 4 2 11 8 3 3-1 4-3 1-10-2-16-4-28-10-17-8-20-12-14-11-14-12-9-9-9-11-10-13-11-18-8-16-6-15-7-23-5-28-1-7v-34l2-10 2-15 7-26 6-15 8-17 9-15 10-14 11-13 11-12 8-7 16-12 15-10 23-12 25-9 20-5z" fill="#FDFDFD"/>
<path transform="translate(407,102)" d="m0 0h2l-1 8-5 24-5 2-34 5-25 6-23 7-24 10-17 8-22 13-16 11-13 10-13 11-17 16-3 4h-2l-2 4-10 11-13 17-13 20-12 21-9 19-6 15-8 24-6 24-4 26-2 18v39l3 28 6 31 9 29 10 25 12 24 13 21 10 14 11 14 9 10 7 8 13 13 8 7 16 13 19 13 15 9 20 11 29 12 24 8 26 6 27 4 12 1h43l33-4 27-6 29-9 23-10 17-8 22-13 16-11 14-11 13-11 15-14 9-10 11-13 12-16 12-19 8-14 8-16 8-19 10-30 6-25 4-26 2-32-1-27-3-25-6-30-6-21-8-21-11-24-9-17-12-19-6-8v-2h40l9 15 12 23 9 20 9 25 8 29 5 27 3 28v49l-4 34-6 28-7 25-7 19-10 23-12 23-14 22-13 18-12 14-7 8-11 12-8 8-8 7-13 11-19 14-20 13-22 12-14 7-27 11-26 8-26 6-26 4-19 2h-46l-27-3-28-5-30-8-25-9-26-12-17-9-21-13-19-14-16-13-13-12-17-17-9-11-7-8-14-19-12-19-10-18-8-16-11-26-8-25-7-29-4-26-2-24v-35l2-25 5-31 6-24 10-30 10-23 11-22 12-20 12-17 10-13 12-14 11-12 13-13 8-7 17-14 17-12 17-11 16-9 23-11 25-10 27-8 22-5 27-4z" fill="#F91211"/>
<path transform="translate(395,34)" d="m0 0h28l-1 8-5 22-2 2-32 2-33 5-25 6-27 8-26 10-26 12-23 13-20 13-19 14-13 11-10 9-12 11-8 8-7 8-9 10-13 17-8 11-13 20-13 23-9 19-5 11-9 24-6 19-6 24-4 21-3 22-1 13v53l3 27 4 24 8 32 8 24 9 22 12 25 11 20 16 24 12 16 9 11 9 10 7 8 16 16 8 7 13 11 20 15 15 10 24 14 17 9 26 11 25 9 25 7 29 6 23 3 28 2h24l28-2 34-5 30-7 36-12 21-9 25-12 22-13 16-11 19-14 14-12 12-11 10-9 7-8 12-13 14-18 13-18 15-25 11-21 12-26h34l-1 5-6 16-12 26-9 17-14 23-7 10-11 15-8 10-9 11-11 12-12 13-13 12-10 9-30 23-20 13-22 13-28 14-27 11-31 10-24 6-27 5-23 3-26 2h-32l-25-2-36-5-28-6-28-8-19-7-26-11-26-13-20-12-18-12-19-14-14-12-8-7-10-9-19-19-9-11-8-9-15-20-16-24-11-19-12-23-11-26-10-28-9-34-5-28-4-36v-54l3-31 5-29 6-25 6-20 8-23 9-21 15-30 12-20 10-15 13-18 14-17 10-11 7-8 15-15 8-7 9-8 14-11 16-12 15-10 15-9 18-10 16-8 26-11 22-8 37-10 34-6z" fill="#F91211"/>
<path transform="translate(394,169)" d="m0 0h1l-1 11-5 23-15 4-24 6-20 7-22 10-21 12-17 12-14 12-15 14-7 8-10 12-11 15-9 15-12 23-9 24-6 21-5 26-1 10v43l3 23 5 23 8 24 9 20 10 19 12 18 10 13 13 15 10 10 8 7 15 12 15 10 21 12 25 11 25 8 24 5 29 3h22l28-3 24-5 20-6 25-10 21-11 21-14 14-11 12-11 6-5 7-8 12-14 12-17 10-17 8-16 10-25 7-25 4-22 2-20v-28l-3-26-5-25-9-27-8-18-11-21-10-15-9-12-12-14-18-18v-1h47l14 17 13 19 9 15 8 15 10 24 7 21 6 25 4 28 1 15v24l-2 25-5 27-6 23-9 25-13 27-13 21-13 18-12 14-15 16-10 9-11 9-12 9-19 12-14 8-16 8-23 9-23 7-25 5-23 3-17 1h-14l-28-2-29-5-25-7-19-7-18-8-19-10-19-12-13-10-11-9-12-11-14-14-9-11-13-17-12-19-12-22-10-24-8-25-6-27-3-26v-43l2-19 4-22 6-24 9-24 8-18 11-20 14-21 11-14 10-11 7-8 10-10 8-7 16-13 18-12 17-10 25-12 25-9 22-6z" fill="#F91211"/>
<path transform="translate(1246,323)" d="m0 0h53l2 12 7 63 1 14 3-3 10-18 8-16 9-17 7-14 8-15 2-5 2-1h48l2 5 8 79 1 7 2-2 9-19 10-18 19-38 8-14h52l-1 5-13 25-10 19-13 26-10 19-8 14-8 16-14 27-5 9-2 1h-55l-2-4-3-24-6-55h-2l-2 6-18 36-11 20-6 12-5 8-2 1h-53l-3-3-3-18-7-60-8-65-1-6z" fill="#FDFDFD"/>
<path transform="translate(713,39)" d="m0 0h95l18 3 12 5 9 7 6 9 2 7v17l-4 10-6 8-9 8-7 3v2l9 6 6 7 4 11v15l-2 8-4 8-10 11-14 8-16 5-11 2-14 1h-95l-2-1 24-120 8-39zm45 38-5 23 1 1h33l7-3 5-7v-7l-4-5-6-2zm-12 60-5 22v3h41l7-3 4-5 2-7-3-7-5-3z" fill="#FDFDFD"/>
<path transform="translate(922,323)" d="m0 0h43l7 10 5 9 13 21 8 13 9 15 2 6h2l4-19 10-51 2-4h51l1 4-6 28-22 111-4 17-2 1h-41l-5-5-12-19-16-26-10-17-3-5-2-1-5 27-8 38-1 7-3 1h-49l-1-1 1-9 20-99 9-47 1-4z" fill="#FDFDFD"/>
<path transform="translate(403,242)" d="m0 0h42l26 4 24 7 16 6 16 7 18 11 16 12 12 11 15 15 11 15-1 2-17 2-5 3-1 1 1 7 6 12v6l-4 6-4 3-8 1-9-4-5-6-4-10-3-3h-8l-10 6-8 8-9 6-2 1h-9l-8-7-6-12-1-10 4-7 10-4 12-4 3-2v-5l-4-1-9-1-2-5-4-2-12-3-14 1-12 2-15 1-33 11-5 5-7 3-4 5-7-8-6-3-5-1h-13l-15 3-19 5-15 3-9 6-9 8h-6l-5-5-1-2 1-9 7-6 9-3 29-1 13-5 5-4 3-6v-13l-4-6-4-2h-10l-10 4-20 13h-6l-5-5-4-5 1-4 16-12 20-12 19-9 27-9 19-4z" fill="#74CDF9"/>
<path transform="translate(683,265)" d="m0 0h40l9 15 12 23 9 20 9 25 8 29 5 27 3 28v49l-4 34-6 28-7 25-7 19-10 23-12 23-14 22-13 18-12 14-7 8-11 12-8 8-8 7-13 11-19 14-20 13-22 12-14 7-15 6-5-2-9-4-1-1v-9l5-6 4-9h2l2-5 21-10 22-13 16-11 14-11 13-11 15-14 9-10 11-13 12-16 12-19 8-14 8-16 8-19 10-30 6-25 4-26 2-32-1-27-3-25-6-30-6-21-8-21-11-24-9-17-12-19-6-8z" fill="#263E6E"/>
<path transform="translate(601,381)" d="m0 0h14l12 2 5 15 4 17 3 18 1 14v17l-2 22-4 21-8 26-9 20-8 15-7 10-4-1-11-12-7-6-3-6v-7l5-8 8-11 1-5-6-10-5-6-1-12-2-4-4-2h-8l-10 4-12 7-13 8-11 3-10-1-10-5-9-8-7-11-8-17-2-7v-10l4-6 8-8 2-3-2-9-3-7v-6l3-5 7-3 13-1 9-3 11-9 9-6 2-1h8l10 5 11 11 7 4 8-1 7-9 6-9z" fill="#FCFCFC"/>
<path transform="translate(525,542)" d="m0 0 16 1 14 3 7 3 3 5 5 1 3 4h2l4 5 2 1v2l4 2 4 4 3 1 4 5v7l-12 14-11 12-8 7-14 11-17 11-23 12-22 8-24 6-19 3-13 1h-18l-18-2-1-5-5-4-7-5-3-8v-6l-1-1v-8l1-4h2l3-10 2-1 4-13 4-1 2-5 1-2 5-1-1-3 4-1 6-8 10-10 5-2v-2h2v-2h2v-2h2v-2l7-5 16-8 9-3 8-2h14l26-1z" fill="#2E32BF"/>
<path transform="translate(593,265)" d="m0 0h47l14 17 13 19 9 15 8 15 10 24 7 21 6 25 4 28 1 15v24l-2 25-5 27-6 23-9 25-13 27-13 21-13 18-12 14-15 16-10 9-11 9-12 9-19 12-14 8-16 8-10 4-6-1v-2l-5-2-4-6 3-8 6-7 6-11 21-11 21-14 14-11 12-11 6-5 7-8 12-14 12-17 10-17 8-16 10-25 7-25 4-22 2-20v-28l-3-26-5-25-9-27-8-18-11-21-10-15-9-12-12-14-18-18z" fill="#263E6E"/>
<path transform="translate(1105,323)" d="m0 0h130l-1 8-7 32-3 1h-34l-40 1-3 13v4l66 1-1 11-5 25-1 2-34 1h-34l-4 20 80 1-2 13-5 23-2 4-8 1h-122l-2-1 1-9 22-109 8-41z" fill="#FDFDFD"/>
<path transform="translate(1120,644)" d="m0 0h134l-1 11-2 10 63-10h6l-1 10-11 55-2 5-46-7-19-3-1 10-2 12-2 1h-133l-1-3 13-69 4-21z" fill="#F91211"/>
<path transform="translate(1575,320)" d="m0 0h35l21 4 18 7 2 1-1 6-10 21-6 12-4 1-10-5-14-4-6-1h-22l-9 4-3 3v5l5 4 11 4 24 6 15 6 11 8v2h2l5 8 3 13-1 13-5 15-8 11-10 9-14 7-16 5-12 2-21 1-21-2-18-4-19-7-5-3v-5l10-18 9-17 5 1 10 5 16 5 10 2h24l8-4 2-2v-5l-8-5-32-9-15-6-9-7-7-8-4-11v-19l5-15 9-12 9-8 15-8 18-5z" fill="#FDFDFD"/>
<path transform="translate(432,441)" d="m0 0h4l2 2h14l17 5 3 3 1 14h2l5 12 7 13 7 9 8 6 11 4 11-1 9-4 12-7 10-6 10-4h8l6 4 1 8 2 9 7 8 3 6-1 5-9 12-4 7v7l4 7 13 12 4 5 2 2-4 6h-1l-2-7-2-4-4-1-7-6v-2l-4-2-2-4-4 1v-2l-5-3-4-4v-2l-6-1-5-2-10-2-16-1-14 2-31 1h-6l-16 4-4 3-7 3-9 5-4 2v2h-2v2h-2v2h-2v2l-6 4h-2l-2 4-5 5-7 9h-2v2l-5 1-2 5-1 2-3 1-4 13-3 1-1 5-2 5h-2v12l1 1v7l2 6-4-2-4-8 1-10 5-13 5-10 3-13 2-9 6-5 8-4 2-3v-15l5-7 9-7 5-10v-8l-3-8-8-9-15-9-15-8-9-7-4-5-1-7-2-5-4-2-3-2-1-3-2-1v-4l2-1-3-1 1-4 4-5 10-3 16-1h18l17-2z" fill="#5076D1"/>
<path transform="translate(489,39)" d="m0 0h54l-5 27-18 89-1 3h72l-1 10-6 31-2 1h-124l-2-1 31-155z" fill="#FDFDFD"/>
<path transform="translate(787,600)" d="m0 0h34l-1 5-6 16-12 26-9 17-14 23-7 10-11 15-8 10-9 11-11 12-12 13-13 12-10 9-30 23-20 13-22 13-28 14-27 11-9 3h-4l-3-5-4-2-2-4 1-5 1-3h2l2-5 1-5 1-1-3-2 29-12 27-13 22-13 16-11 19-14 14-12 12-11 10-9 7-8 12-13 14-18 13-18 15-25 11-21z" fill="#273E6F"/>
<path transform="translate(1742,641)" d="m0 0h43l12 2 10 5 6 7 3 7 1 10-3 12-7 10-6 5-6 3 1 5 10 17 4-2 12-19 11-17 9-14 10-16 9-14 1-1h29l4 15 11 48 5 21v2l-2 1h-25l-2-1-2-10v-4h-35l-2 6-4 8-5 1h-56l-6-9-6-10-3-3-4-1-4 16-2 6-1 1h-20l-8-1 5-26 12-59zm25 23-3 7-2 12 1 1h15l6-3 3-6-1-7-4-4zm102 7-8 15-2 3v3h16l-1-9-3-12z" fill="#FDFDFD"/>
<path transform="translate(210,471)" d="m0 0 11 7 14 6 13 2 17 6 13 1h6l2 1-1 6-4 13v19l3 11 4 9 6 8 7 4h9l5-2h5l4 5 6 16 9 14 8 11-1 7-1 3 1 13 5 12 8 11 6 8-9-2-25-10-20-11-12-8-16-13-13-12-11-12-12-16-11-18-8-16-6-15-7-23-5-28z" fill="#4051C9"/>
<path transform="translate(633,39)" d="m0 0h53l1 2-22 109-9 45-1 4-6 1h-44l-5-1 24-120 8-39z" fill="#FDFDFD"/>
<path transform="translate(477,307)" d="m0 0 8 1 9 2 5 5 1 2 12 1 2 2v5l-7 4-15 5-4 2-3 6 1 10 6 12 7 6h9l8-5 10-9 9-6 2-1h8l5 6 4 9 5 5 7 3 8-1 5-4 2-4-1-9-6-11v-5l4-4 10-2 12-1 8 13v2l-2 1-1 12-3 7-5 1-10-6-3 1-1 4 1 5-5 2-9 3-7 1-5-3-3-3-1-2h-6l-2 3-24 3-3 2-5-1-5-2-12-1-3-3-3-1-5-6-2-6h-2l1 8-2 2-10-2-8-5-8-3-17 1-16 3-12 5-5 1v2l-13 5-6 3-11 2-19 2-10 3-8 3-13 7-10 7h-2l-1 2-4 1-4 21-4 12-6 8-8 4h-31l-6 2-5 4h-1v7l11-1 5-2 7 1 7 6 4 6-1 3-7-10-5-3-7 1-7 4h-5l-5-5v-7l4-6 9-4h11l17 1 9-2 6-5 4-9 5-26 5-10 5-5 8-3 15-4 4-2 1-2 1-16 1-2h9l13 5h10l8-4 6-8 1-3v-14l4-6 8-4 4-4 33-11 15-1z" fill="#69A6E4"/>
<path transform="translate(454,507)" d="m0 0 14 2 12 4h13l4 2 16 1 5 1 2 1 17-3 10-4 6-1 4 1h7l7 1h7l5 3v2l2 1-1 4 2 6v6l-6 8-2 4v7l4 7 13 12 4 5 2 2-4 6h-1l-2-7-2-4-4-1-7-6v-2l-4-2-2-4-4 1v-2l-5-3-4-4v-2l-6-1-5-2-10-2-16-1-14 2-31 1h-6l-16 4-4 3-7 3-9 5-4 2v2h-2v2h-2v2h-2v2l-6 4h-2l-2 4-5 5-7 9h-2v2l-5 1-2 5-1 2-3 1-4 13-3 1-1 5-2 5h-2v12l1 1v7l2 6-4-2-4-8 1-10 5-13 5-10 3-13 2-9 6-5 8-4 2-3v-15l5-7 9-7 6-11 3-7 5-1v-11l5-3 6-6z" fill="#4052C9"/>
<path transform="translate(517,262)" d="m0 0 10 4 18 11 16 12 12 11 15 15 11 15-1 2-17 2-5 3-1 1 1 7 6 12v6l-4 6-4 3-8 1-9-4-5-6-4-10-3-3h-8l-10 6-8 8-9 6-2 1h-9l-8-7-6-12-1-10 4-7 10-4 12-4 4-4 3-7 5-6 10-7 3-4-1-5-5-4-13-7-4-4-1-2v-8l3-5z" fill="#FDFDFD"/>
<path transform="translate(1562,641)" d="m0 0h23l3 3 12 20 8 13 3 3 3-19 4-20h28l1 2-15 75-3 9-4 1h-18l-3-3-13-20-9-15-1-1-5 23-3 15-2 1-26-1-1-2 5-24 10-50 2-9z" fill="#FDFDFD"/>
<path transform="translate(454,277)" d="m0 0h23l6 1 18 1 9 1 11 8 7 3 4 3v3h2l-1 4-3 5-10 7-4 7-1 3h-2l-1-4-12-1-2-5-4-2-12-3-14 1-12 2-15 1-33 11-5 5-7 3-4 5-7-8-6-3v-2l-13-2-9-1-2-4 5-14 2-7 13-5 9-1 5-2 26-4 17-2z" fill="#6DBDEE"/>
<path transform="translate(1478,641)" d="m0 0h70l-2 12-3 10h-42l-1 10h36l-1 10-2 10-2 2h-34l-3 7-1 4h43l-1 11-2 10-2 1h-64l-7-1 5-26 12-59z" fill="#FDFDFD"/>
<path transform="translate(1421,639)" d="m0 0h14l12 3 10 5 7 8-4 5-11 9-4 3-4-1-5-5-4-2h-13l-8 4-6 9-1 4v14l4 7 6 3h12l8-4 4-4 4 1 8 8 6 5-1 5-11 8-9 4-10 2h-16l-11-3-10-5-5-4-7-10-3-10v-16l4-13 6-10 10-10 14-7z" fill="#FDFDFD"/>
<path transform="translate(1655,641)" d="m0 0h79l1 2-4 19-2 2h-23l-3 11-6 31-4 20-2 2h-27l-1-3 12-59 1-2h-25l1-10z" fill="#FDFDFD"/>
<path transform="translate(525,542)" d="m0 0 16 1 14 3 7 3 3 5 5 1 3 4h2l4 5 2 1v2l4 2 4 4 3 2-2 1-2-1-1 2-4-1-1-2-3-1v-2h-2v-2l-3 2 1 2-12-4h-2v-2l-16-3-18 1-19 3-24 2-4 2v1h-8l-3-1-11 2-5 3-4-1-5 2-4 1-10 6-12 2-9 7-9 6-3 1 2-5 5-1-1-3 4-1 6-8 10-10 5-2v-2h2v-2h2v-2h2v-2l7-5 16-8 9-3 8-2h14l26-1z" fill="#3747BF"/>
<path transform="translate(1934,641)" d="m0 0h29l-5 26-8 38h39l-2 12-2 9-3 2h-64l-1-1 1-11 15-74z" fill="#FDFDFD"/>
<path transform="translate(446,486)" d="m0 0 9 1 10 5 13 2 1-3 5-1 2 4h4l5 6 7 5 11 4 11-1 9-4 12-7 10-6 10-4h8l6 4 1 8 2 9 7 8 3 6-1 5-4 6h-1l-3-12v-4-2l-7-2h-10l-2-1h-9l-3-1-14 4-6 2-13 2-3-2h-9l-10-1-4-2h-13l-12-4-10-1-4-1-8 3-7 7h-3v11h-3l-1 2-2 2-2 4-2-11-6-9-7-6-12-7-1-4 11-2 7-1 4 1v-2h2v-2l12-6z" fill="#4A68D0"/>
<path transform="translate(292,585)" d="m0 0h10l16 5 3 1h5l3 3 7 6 5 5v5l1 1 1 21 5 12v2l4 2 5 9v2l-9-2-21-9-21-12-12-9-11-9-10-9-3-9 2-6 3 1v-2h3l-1-4 5-3z" fill="#2E33BF"/>
<path transform="translate(454,507)" d="m0 0 14 2 12 4h13l4 2 16 1 5 1 2 1 17-3 10-4 6-1 4 1h7l7 1h7l5 3v2l2 1-1 4 2 6v6l-6 8-2-2-1-9-10-2-8-3-13-1-25 3-15 1-4 1h-13l-10-2h-14l-11 3-5 3-6 7-5 3-1 2h-2v3l-5 5-5 4-1 4-5 2-2 2-2 3h-2l-1 5-3 3-1-15 5-7 9-7 6-11 3-7 5-1v-11l5-3 6-6z" fill="#455CCB"/>
<path transform="translate(630,787)" d="m0 0 2 1v2l-2 1-1 4v18l1 9v4l-32 16-27 11-9 3h-4l-3-5-4-2-2-4 1-5 1-3h2l2-5 1-5 1-1-3-2 29-12 27-13z" fill="#95203B"/>
<path transform="translate(210,471)" d="m0 0 11 7 14 6 13 2 17 6 13 1h6l2 1-1 6-4 13v19l3 11 4 9 6 8 7 4h9l5-2h5l4 5 6 16 3 5-1 2-2-4h-2l-3-6-3-12-2-3-18 2-9-5-6-7-6-12v-3h-2l-3-13-5-3-5-2-9-2-6-2h-16v2l-8-1v3h-2l1 7-1 6-2-3-8-26-5-28z" fill="#5076D1"/>
<path transform="translate(614,714)" d="m0 0 2 1-3 6h-2l1 31v5l-23 13-16 8-17 7-5-2-9-4-1-1v-9l5-6 4-9h2l2-5 21-10 22-13 16-11z" fill="#94203B"/>
<path transform="translate(583,654)" d="m0 0m-1 1m-2 1 2 1-3 3-2 7 1 6v17l-1 10-15 9-16 8-14 6-6-1v-2l-5-2-4-6 3-8 6-7 6-11 21-11 21-14z" fill="#95203B"/>
<path transform="translate(1112,685)" d="m0 0h2l1 4h2l1 5 4 1 10 5 5 5 12 15v2h2l4 7v7l-1 1h-52l5-28z" fill="#93203B"/>
<path transform="translate(1116,662)" d="m0 0h2v7l-1 2h3v2l4 2 5 1 6 5 5 5 1 3 4 2 5 4v2h2l7 8 6 7 4 5v2l3 1v2l3 1 3 6 1 7-2 1h-23v-8l-3-5v-2h-2l-8-11-4-5-5-4v-2l-6-2-8-4-1-5h-2l-1-4h-2l2-14z" fill="#D81521"/>
<path transform="translate(238,517)" d="m0 0h13l9 3 7 2 7 3 3 2 2 13h2l5 12 7 9 9 5 18-2 2 4-6-2-6 3h-10l-10-6-5-6-3-5-4-4h-6l-2-2-6-2-5-5-5-2-10 2v3l-5 5v6l-1 3 2 9-3-3-8-16-4-9v-15h2v-3l8 1v-2z" fill="#4966D0"/>
<path transform="translate(553,824)" d="m0 0 5 1-2 4-1 4-2 4h-2l-1 8 1 4 4 1 3 3 1 4-19 6-15 4-6-1-1-5-6-2v-8l1-3h2l-3-5v-5l4-3 25-7z" fill="#D81521"/>
<path transform="translate(251,536)" d="m0 0 7 1 2 4 4 2 7 3 2 1h5l5 5 3 5 4 4v2l10 5h10l6-3 5 2 2 1 2 9-3-1-1-4-11 2-14-4-1-2-4 1-1-3-3 1-4-1-5 1-7-3h-8l-12 6h-3l1 9-4-4-5-8-3-13 1-3 1-6 4-4 1-3z" fill="#455CCB"/>
<path transform="translate(630,787)" d="m0 0 2 1v2l-2 1-1 4v18l1 9v4l-26 13h-3v-2l-5-2-3-1v-2l-3-1-1-6 5-9 2-8h3v-2h2l1-3 20-11z" fill="#6B284C"/>
<path transform="translate(614,714)" d="m0 0 2 1-3 6h-2l1 31v5l-23 13h-2v-2h-3l-7-8 3-12 4-12h2l1-4 16-10z" fill="#6C284B"/>
<path transform="translate(552,750)" d="m0 0 1 2-1 2h-2l-3 9-5 6v9l12 6v2l-25 9-9-1-7-4-3-2 1-7 2-4-1-7-1-3 2-3 27-9z" fill="#D81622"/>
<path transform="translate(292,585)" d="m0 0h10l16 5 3 1h5l3 3 7 6 5 5v5l-2-1v-2l-7 3-1 2-6-1-9-4-2-2h-13l-9 4-11-3-6-3-5-1 1-7 2-1 2 1v-2h3l-1-4 5-3z" fill="#3747BF"/>
<path transform="translate(652,772)" d="m0 0h2l-1 7 4 2 3 5-3 13-6 14-13 8-7 4-2-1v-8l-1-3v-18l2-5h2l-1-3 11-8z" fill="#41355F"/>
<path transform="translate(641,692)" d="m0 0m-1 1m-1 1m-1 1m-1 1m-1 1m-2 1 2 1-2 4 1 4 4 6-1 12-3 10-4 9-18 12-2-1v-34l2-2 4-7 16-13z" fill="#413560"/>
<path transform="translate(583,654)" d="m0 0m-1 1m-2 1 2 1-3 3-2 7 1 6v17l-1 10-15 9-6 2-2-1-4-8-1-7 4-11 4-10 5-5 12-8z" fill="#6C284C"/>
<path transform="translate(530,687)" d="m0 0 2 1-8 13-4 4-2 7 3 5 5 3v2l4 2-20 7-9-1-4-4v-2l-3-1v-6h2l1-11 1-7 20-7z" fill="#D81622"/>
<path transform="translate(210,471)" d="m0 0 11 7 14 6 13 2 17 6 13 1h6l2 1-1 6-4 13v19l3 11 4 9 6 8 7 4h9l5-2h5l4 5 6 16 3 5-1 2-2-4h-2l-3-6-3-12-2-3-18 2-9-5-6-7-6-12-3-13v-14l1-14-3-3h-10v-2l-15-2-6-2h-10l-13 2-7 6h-1l-4-23z" fill="#5D90DA"/>
<path transform="translate(591,647)" d="m0 0 8 12-1 13-7 19-12 8-3-1 1-9v-17l-1-6 3-7 5-6z" fill="#413560"/>
<path transform="translate(304,416)" d="m0 0 1 3-3 13-5 10-5 4-6 3h-31l-6 2-5 4h-1v7l11-1 5-2 7 1 7 6 4 6-1 3-7-10-5-3-7 1-7 4h-5l-5-5v-7l4-6 9-4h11l17 1 9-2 6-5 4-9 3-13z" fill="#6AAAE6"/>
<path transform="translate(333,590)" d="m0 0 4 4 10 14-1 7-1 3 1 13 5 12 8 11 6 8-9-2-1-5-5-8-3-3-3-6-2-6v-21l-2-1v-7l-7-9z" fill="#5884D8"/>
<path transform="translate(1107,716)" d="m0 0 5 5 4 5 4 7 4 2v2h-22l4-20z" fill="#6E294B"/>
<path transform="translate(427,538)" d="m0 0h1l-1 9-2 7h-3l-1 4-3 3h-2l-2 7h-3v8l-2 1-1-15 5-7 9-7z" fill="#5075D4"/>
<path transform="translate(279,515)" d="m0 0h1l1 17 3 11 4 9 6 8 7 4h9l5-2h5l4 5 6 16 3 5-1 2-2-4h-2l-3-6-3-12-2-3-18 2-9-5-6-7-6-12-3-13v-14z" fill="#639BDF"/>
<path transform="translate(210,471)" d="m0 0 11 7 14 6 13 2 17 6 13 1h6l2 1-1 6-2 2-1-6-14-1-18-5-9-2-7-1-10-4-10-5h-4z" fill="#69A6E4"/>
<path transform="translate(387,611)" d="m0 0 1 3-3 9-2 5h-2v12l1 1v7l2 6-4-2-4-8 1-10 5-13z" fill="#4E6FD1"/>
<path transform="translate(241,455)" d="m0 0h1l1 7 11-1 5-2 7 1 7 6 4 6-1 3-7-10-5-3-7 1-7 4h-5l-5-5v-6z" fill="#6AACE7"/>
<path transform="translate(333,590)" d="m0 0 4 4 7 9 1 4v7l-1 3v16l-2-1v-21l-2-1v-7l-7-9z" fill="#4358CA"/>
<path transform="translate(285,552)" d="m0 0 4 4 4 5 9 5 18-2 2 4-6-2-6 3h-10l-10-6-5-6z" fill="#4B6BD0"/>
<path transform="translate(210,471)" d="m0 0 11 7 14 6 6 2-4 2-13-5-10-5h-4z" fill="#69A7E4"/>
<path transform="translate(291,337)" d="m0 0 5 1-2 9-5 1v-2h-3l-1-3 2-4z" fill="#6CBCED"/>
<path transform="translate(404,581)" d="m0 0h2l-1 4-4 1-4 5-3 1-4 16-1-4 2-13 5-6z" fill="#557ED6"/>
<path transform="translate(315,562)" d="m0 0h5l4 5 6 16 3 5-1 2-2-4h-2l-3-6-3-12-2-3-11 1 1-2z" fill="#5F94DD"/>
<path transform="translate(349,641)" d="m0 0 4 5 10 13 2 3-9-2-1-5-6-9z" fill="#5A89D9"/>
<path transform="translate(1258,435)" d="m0 0 2 2 1 8v16h-1l-2-12z" fill="#DC151F"/>
<path transform="translate(1254,399)" d="m0 0 2 4 1 7v15l-2-4-1-12z" fill="#DE151E"/>
<path transform="translate(387,611)" d="m0 0 1 3-3 9-2 5h-2l-1 3-1-3z" fill="#547DD6"/>
<path transform="translate(333,590)" d="m0 0 4 4 7 9-1 2-6-5-4-6z" fill="#5A89D9"/>
<path transform="translate(355,654)" d="m0 0 4 2 6 5-3 1-6-2z" fill="#5176D4"/>
<path transform="translate(424,545)" d="m0 0 1 2-7 8-6 5 2-4 4-5 5-5z" fill="#5580D6"/>
<path transform="translate(299,434)" d="m0 0 1 3-6 8-6 2 5-5 4-5z" fill="#69A6E4"/>
<path transform="translate(278,493)" d="m0 0h6l2 1-1 6-2 2-1-8z" fill="#6BB0E9"/>
</svg>
