<?xml version="1.0" encoding="UTF-8"?>
<svg version="1.1" viewBox="0 0 2000 880" width="1280" height="1280" xmlns="http://www.w3.org/2000/svg">
<path transform="translate(767,263)" d="m0 0h983l-1 9-16 89-21 115-10 56-5 27-2 4h-892l1-9 5-21 4-23 2-15 1-13v-51l-3-30-6-32-7-26-7-21-9-22-11-24-6-11z" fill="#F91211"/>
<path transform="translate(403,242)" d="m0 0h42l26 4 24 7 16 6 16 7 18 11 16 12 12 11 15 15 12 16 12 20 8 15 11 28 5 21 3 18 1 14v17l-2 22-4 21-8 26-9 20-8 15-10 14-9 11-12 14-14 13-13 10-17 11-23 12-22 8-24 6-19 3-13 1h-18l-21-1-10-2-16-4-28-10-17-8-20-12-14-11-14-12-9-9-9-11-10-13-11-18-8-16-6-15-7-23-5-28-1-7v-34l2-10 2-15 7-26 6-15 8-17 9-15 10-14 11-13 11-12 8-7 16-12 15-10 23-12 25-9 20-5z" fill="#5D90DA"/>
<path transform="translate(407,102)" d="m0 0h2l-1 8-5 24-5 2-34 5-25 6-23 7-24 10-17 8-22 13-16 11-13 10-13 11-17 16-3 4h-2l-2 4-10 11-13 17-13 20-12 21-9 19-6 15-8 24-6 24-4 26-2 18v39l3 28 6 31 9 29 10 25 12 24 13 21 10 14 11 14 9 10 7 8 13 13 8 7 16 13 19 13 15 9 20 11 29 12 24 8 26 6 27 4 12 1h43l33-4 27-6 29-9 23-10 17-8 22-13 16-11 14-11 13-11 15-14 9-10 11-13 12-16 12-19 8-14 8-16 8-19 10-30 6-25 4-26 2-32-1-27-3-25-6-30-6-21-8-21-11-24-9-17-12-19-6-8v-2h40l9 15 12 23 9 20 9 25 8 29 5 27 3 28v49l-4 34-6 28-7 25-7 19-10 23-12 23-14 22-13 18-12 14-7 8-11 12-8 8-8 7-13 11-19 14-20 13-22 12-14 7-27 11-26 8-26 6-26 4-19 2h-46l-27-3-28-5-30-8-25-9-26-12-17-9-21-13-19-14-16-13-13-12-17-17-9-11-7-8-14-19-12-19-10-18-8-16-11-26-8-25-7-29-4-26-2-24v-35l2-25 5-31 6-24 10-30 10-23 11-22 12-20 12-17 10-13 12-14 11-12 13-13 8-7 17-14 17-12 17-11 16-9 23-11 25-10 27-8 22-5 27-4z" fill="#F91211"/>
<path transform="translate(395,34)" d="m0 0h28l-1 8-5 22-2 2-32 2-33 5-25 6-27 8-26 10-26 12-23 13-20 13-19 14-13 11-10 9-12 11-8 8-7 8-9 10-13 17-8 11-13 20-13 23-9 19-5 11-9 24-6 19-6 24-4 21-3 22-1 13v53l3 27 4 24 8 32 8 24 9 22 12 25 11 20 16 24 12 16 9 11 9 10 7 8 16 16 8 7 13 11 20 15 15 10 24 14 17 9 26 11 25 9 25 7 29 6 23 3 28 2h24l28-2 34-5 30-7 36-12 21-9 25-12 22-13 16-11 19-14 14-12 12-11 10-9 7-8 12-13 14-18 13-18 15-25 11-21 12-26h34l-1 5-6 16-12 26-9 17-14 23-7 10-11 15-8 10-9 11-11 12-12 13-13 12-10 9-30 23-20 13-22 13-28 14-27 11-31 10-24 6-27 5-23 3-26 2h-32l-25-2-36-5-28-6-28-8-19-7-26-11-26-13-20-12-18-12-19-14-14-12-8-7-10-9-19-19-9-11-8-9-15-20-16-24-11-19-12-23-11-26-10-28-9-34-5-28-4-36v-54l3-31 5-29 6-25 6-20 8-23 9-21 15-30 12-20 10-15 13-18 14-17 10-11 7-8 15-15 8-7 9-8 14-11 16-12 15-10 15-9 18-10 16-8 26-11 22-8 37-10 34-6z" fill="#F91211"/>
<path transform="translate(394,169)" d="m0 0h1l-1 11-5 23-15 4-24 6-20 7-22 10-21 12-17 12-14 12-15 14-7 8-10 12-11 15-9 15-12 23-9 24-6 21-5 26-1 10v43l3 23 5 23 8 24 9 20 10 19 12 18 10 13 13 15 10 10 8 7 15 12 15 10 21 12 25 11 25 8 24 5 29 3h22l28-3 24-5 20-6 25-10 21-11 21-14 14-11 12-11 6-5 7-8 12-14 12-17 10-17 8-16 10-25 7-25 4-22 2-20v-28l-3-26-5-25-9-27-8-18-11-21-10-15-9-12-12-14-18-18v-1h47l14 17 13 19 9 15 8 15 10 24 7 21 6 25 4 28 1 15v24l-2 25-5 27-6 23-9 25-13 27-13 21-13 18-12 14-15 16-10 9-11 9-12 9-19 12-14 8-16 8-23 9-23 7-25 5-23 3-17 1h-14l-28-2-29-5-25-7-19-7-18-8-19-10-19-12-13-10-11-9-12-11-14-14-9-11-13-17-12-19-12-22-10-24-8-25-6-27-3-26v-43l2-19 4-22 6-24 9-24 8-18 11-20 14-21 11-14 10-11 7-8 10-10 8-7 16-13 18-12 17-10 25-12 25-9 22-6z" fill="#FA1211"/>
<path transform="translate(333,286)" d="m0 0 8 1 6 3 3 6v10l-3 7-9 7-14 4h-23l-9 2-6 4-3 3-1 8 4 6 3 2 6-1 9-9 9-5 16-3 22-6 6-1h20l7 3 6 5 3 8v9l-5 10-7 5-6 2-10-1-12-5h-7l-1 1-1 16-5 5-9 3-12 3-6 4-5 8-2 6-5 26-5 9-7 4-3 1h-17l-14-1-7 3-5 4-1 2v9l3 3h7l7-4h7l7 6 7 11 6 4 6-2 10-9 5-4 4-2h6l5 6 4 9v2l7-1 9-5 9-6 9 1 9 6 12 13 12 8 16 8 13 10 5 7 2 7-1 10-4 6-7 7-6 5-1 2v16l-5 5-11 6-2 5-2 14-5 12-5 11-2 6v10l4 6 4 2 5 5 5 3 3 4v2l-6 1-17-3-30-10-20-9-22-13-14-11-14-12-9-9-9-11-10-13-11-18-8-16-6-15-7-23-5-28-1-7v-34l2-10 2-15 7-26 6-15 8-17 9-15 10-14 11-13 11-12 8-7 4 2 5 6v2l9 1 18-12 8-4z" fill="#FCFCFC"/>
<path transform="translate(434,448)" d="m0 0h17l9 3 4 1 4-1 4 3-1 7 6 9 8 17 9 12 11 7 9 3 9-1 10-4 10-6 9-6 12-5 6-1 8 3 2 3 1 13 3 5 7 9 1 6-6 9-7 10-1 4 1 8 5 6 8 7 6 7 5-1-2 4-10 13-9 10-7 8-11 10-13 10-17 11-23 12-22 8-24 6-19 3-13 1h-18l-21-1v-2h4l-3-4v-2l-5-2-5-4-1-2-5-3-3-5v-10l5-13 6-13 2-7 2-13 5-5 9-5h2l1-3v-16l6-7 8-7 4-6 1-10-3-8-5-7-11-8-21-11-10-8-4-5v-10h-2l-3-7 1-5 5-6 4-5 12-1 10-1 7 1 18-1z" fill="#3B48C3"/>
<path transform="translate(1246,323)" d="m0 0h53l2 12 7 63 1 14 3-3 10-18 8-16 9-17 7-14 8-15 2-5 2-1h48l2 5 8 79 1 7 2-2 9-19 10-19 15-29 12-22h52l-1 5-13 25-10 19-13 26-10 19-8 14-8 16-14 27-5 9-2 1h-55l-2-4-3-24-6-55h-2l-2 6-8 16-19 37-10 18-3 5-2 1h-53l-3-3-3-18-7-60-8-65-1-6z" fill="#FDFDFD"/>
<path transform="translate(713,39)" d="m0 0h95l18 3 12 5 9 7 6 9 2 7v17l-4 10-6 8-9 8-7 3v2l9 6 6 7 4 11v15l-2 8-4 8-10 11-14 8-16 5-11 2-14 1h-95l-2-1 24-120 8-39zm45 38-5 23 1 1h33l7-3 5-7v-7l-4-5-6-2zm-12 60-5 22v3h41l7-3 4-5 2-7-3-7-5-3z" fill="#2F32C4"/>
<path transform="translate(922,323)" d="m0 0h43l7 10 5 9 15 24 12 20 5 9v2h2l4-19 10-51 2-4h51l1 4-6 28-22 111-4 17-2 1h-41l-5-5-12-19-16-26-10-17-3-5-2-1-5 27-8 38-1 7-3 1h-49l-1-1 1-9 20-99 9-47 1-4z" fill="#FDFDFD"/>
<path transform="translate(403,242)" d="m0 0h42l26 4 24 7 16 6 16 7 18 11 16 12 12 11 15 15 11 15-3 2-16 2-5 3v7l6 11 1 7-3 6-6 4h-10l-6-4-5-6-5-10-4-3-7 1-9 6-12 11-9 4h-7l-8-7-5-9-2-8 1-7 5-6 18-6 5-3 2-4 1-6 2-3-1-4-14-1-10-4-13-1h-13l-23 4-17 4-17 5-14 7-4 5h-3l1 5-9-6-4-1h-20l-32 8-12 2-10 6-8 8-6 1-6-5-2-4 1-8 8-7 5-2 6-1h23l14-4 9-7 2-6v-10l-2-6-11-3-9 2-10 5-16 11h-6l-5-5-5-6 2-4 16-12 20-12 19-9 27-9 19-4z" fill="#75D0FB"/>
<path transform="translate(602,381)" d="m0 0 17 1 8 1 5 15 4 17 3 18 1 14v17l-2 22-4 21-8 26-9 20-8 15-5 7-3 2-4-1-7-8-10-9-2-3-1-9 4-7 9-13 1-5-5-9-5-5-1-3-1-13-3-3-8-2-12 4-13 8-14 8-10 3-9-1-12-6-6-5-9-13-7-15-3-11v-7l4-7 9-9 1-6-5-13 1-7 6-5 21-3 8-5 12-10 6-3h8l8 4 6 5 4 5 7 5 9 1 4-2 8-13 4-5z" fill="#FCFCFC"/>
<path transform="translate(683,265)" d="m0 0h40l9 15 12 23 9 20 9 25 8 29 5 27 3 28v49l-4 34-6 28-7 25-7 19-10 23-12 23-14 22-13 18-12 14-7 8-11 12-8 8-8 7-13 11-19 14-20 13-12 6-3-7-2-4v-9l4-13 1-4v-2l18-12 14-11 13-11 15-14 9-10 11-13 12-16 12-19 8-14 8-16 8-19 10-30 6-25 4-26 2-32-1-27-3-25-6-30-6-21-8-21-11-24-9-17-12-19-6-8z" fill="#273E6C"/>
<path transform="translate(1105,323)" d="m0 0h130l-1 8-7 32-3 1h-34l-40 1-3 13v4l66 1-1 11-5 25-1 2-33 1h-35l-4 20 80 1-2 13-6 27-9 1h-122l-2-1 1-9 22-109 8-41z" fill="#FDFDFD"/>
<path transform="translate(1120,644)" d="m0 0h134l-1 11-2 10 63-10h6l-1 10-11 55-2 5-46-7-19-3-1 10-2 12-2 1h-133l-1-3 13-69 4-21z" fill="#F91211"/>
<path transform="translate(1575,320)" d="m0 0h35l17 3 20 7 4 2-1 6-10 21-6 12-4 1-10-5-14-4-6-1h-22l-9 4-3 3v5l5 4 16 5 22 6 12 5 11 8v2h2l5 8 3 12v8l-4 16-5 10-10 11-9 6-10 5-16 5-12 2-21 1-21-2-18-4-19-7-5-3v-5l4-7 12-22 3-6 5 1 10 5 17 5 9 2h24l8-4 2-2v-5l-8-5-32-9-15-6-9-7-7-8-4-11v-19l5-15 9-12 9-8 15-8 18-5z" fill="#FDFDFD"/>
<path transform="translate(593,265)" d="m0 0h47l14 17 13 19 9 15 8 15 10 24 7 21 6 25 4 28 1 15v24l-2 25-5 27-6 23-9 25-13 27-13 21-13 18-12 14-15 16-10 9-11 9-12 9-19 12-6 4h-3l-4-11v-9l4-16 2-4 13-9 11-9 11-10 6-5 7-8 12-14 12-17 10-17 8-16 10-25 7-25 4-22 2-20v-28l-3-26-5-25-9-27-8-18-11-21-10-15-9-12-12-14-18-18z" fill="#273E6C"/>
<path transform="translate(577,567)" d="m0 0 7 4h1v5l7-1 4 4v7l-12 14-11 12-8 7-14 11-17 11-23 12-22 8-24 6-19 3-13 1h-18l-21-1v-2h4l-3-4v-2l-5-2-5-4-3-3v-5l-4-1v-10l9-19 2-6 1-7 3-2h3v-2l8-3h3l5-3 22-8 16-5 3-1 24-2 10-2 24-3 15-2 7-2h15l17 4 2-1 12 6 4-3-3-3-3-2z" fill="#2F32C4"/>
<path transform="translate(489,39)" d="m0 0h54l-5 27-18 89-1 3h72l-1 10-6 31-2 1h-124l-2-1 31-155z" fill="#3033C4"/>
<path transform="translate(1742,641)" d="m0 0h43l12 2 10 5 6 7 3 7 1 10-3 12-7 10-6 5-6 3 1 5 10 17 4-2 12-19 11-17 9-14 10-16 9-14 1-1h29l4 15 11 48 5 21v2l-2 1h-25l-2-1-2-10v-4h-35l-2 6-4 8-5 1h-56l-6-9-6-10-3-3-4-1-4 16-2 6-1 1h-20l-8-1 5-26 12-59zm25 23-3 7-2 12 1 1h15l6-3 3-6-1-7-4-4zm102 7-8 15-2 3v3h16l-1-9-3-12z" fill="#3034C4"/>
<path transform="translate(210,470)" d="m0 0 1 2 5 2 10 6 12 4 12 2 13 5 4 1 19 1 1 3-5 13-1 5v16l3 12 4 9 4 6 7 6 3 1h7l5-2h7l3 4 6 16 5 9 9 12 4 6-1 5-1 1v14l5 13 6 9 4 10-10-3-20-8-20-11-12-8-16-13-13-12-11-12-12-16-11-18-8-16-6-15-7-23-5-28z" fill="#3B48C3"/>
<path transform="translate(787,600)" d="m0 0h34l-1 5-6 16-12 26-9 17-14 23-7 10-11 15-8 10-9 11-11 12-12 13-13 12-10 9-30 23-20 13-22 13-10 5h-5l-5-5-3-4 2-10 4-11 2-5 11-6 19-12 18-13 14-11 10-9 8-7 12-11 7-8 12-13 14-18 13-18 15-25 11-21z" fill="#273E6C"/>
<path transform="translate(434,448)" d="m0 0h17l9 3 4 1 4-1 4 3-1 7 6 9 8 17 9 12 11 7 9 3 9-1 10-4 10-6 9-6 12-5 6-1 8 3 2 3 1 13 3 5 7 9 1 6-6 9-5 7-1-4 2-5v-10l-3-1-7 1-12-5h-8l-21 5-3 1h-33l-7-2-17-3-7-1-10 1-5 4h-3l-2 4-4 5-3 5h-2l-1 6-3 1v-2h-2l2 8-4 2v5l-5 1-1 3h-2l-1 4-3 2-2 3-1 1v6l-3 5-5 1 1-2h2l1-3v-16l6-7 8-7 4-6 1-10-3-8-5-7-11-8-21-11-10-8-4-5v-10h-2l-3-7 1-5 5-6 4-5 12-1 10-1 7 1 18-1z" fill="#4F73D1"/>
<path transform="translate(633,39)" d="m0 0h53l1 2-22 109-9 45-1 4-6 1h-44l-5-1 24-120 8-39z" fill="#2F32C4"/>
<path transform="translate(467,301)" d="m0 0h13l13 1 10 4 14 1 2 2-1 5-2 4-1 5-5 5-11 4-10 4-3 4-1 7 1 8-6-1-3 4-5-1-11-6h-9l-7 1-3-2h-6l-2 2-12 3-14 7-12 7-9 4-9 1-5-1-13 5-10 3h-5v2l-10 5-9 3-7 3-5 2-2 4-4 5-2 7-3 16-5 12-4 5-10 4h-31l-7 3-1 2h-3l1 8h8l9-3 5 1v2l-9 2-5 3h-7l-4-4v-9l5-6 5-3 4-1 14 1h17l9-4 5-9 5-26 5-12 7-6 9-3 12-3 5-3 1-2 1-16 2-2h7l16 6 9-1 6-3 5-5 3-7v-9l-3-11v-2l5-3 5-5 13-6 19-5 24-5z" fill="#6AABE6"/>
<path transform="translate(519,263)" d="m0 0 8 3 18 11 16 12 12 11 15 15 11 15-3 2-16 2-5 3v7l6 11 1 7-3 6-6 4h-10l-6-4-5-6-5-10-4-3-7 1-9 6-12 11-9 4h-7l-8-7-5-9-2-8 1-7 5-6 18-6 5-3 5-10 9-8 8-7v-5l-7-6-13-7-3-3-1-7 2-6 2-2z" fill="#FDFDFD"/>
<path transform="translate(1562,641)" d="m0 0h23l3 3 12 20 8 13 3 3 3-19 4-20h28l1 2-15 75-3 9-4 1h-18l-3-3-13-20-9-15-1-1-5 23-3 15-2 1-26-1-1-2 5-24 10-50 2-9z" fill="#3033C4"/>
<path transform="translate(455,272)" d="m0 0h24l15 2h11l1 3h4l1 4 4 2v2l6 2 8 4 1 3 3 1 1 7-16 14-1 2-2-1 3-5-1-4-14-1-10-4-13-1h-13l-23 4-17 4-17 5-14 7-4 5h-3l1 5-5-5-9-4-7-1h-20v-5h2v-2h2l1-11 2-9h2l1-4 12-5 20-5 26-4 26-3z" fill="#6FC1F1"/>
<path transform="translate(1478,641)" d="m0 0h70l-2 12-3 10h-42l-1 10h36l-1 10-2 10-2 2h-34l-3 7-1 4h43l-1 11-2 10-2 1h-64l-7-1 5-26 12-59z" fill="#3136C5"/>
<path transform="translate(210,470)" d="m0 0 1 2 5 2 10 6 12 4 12 2 13 5 4 1 19 1 1 3-5 13-1 5v16l3 12 4 9 4 6 7 6 3 1h7l5-2h7l3 4 6 16 5 9 9 12 4 6-1 5-1 1v18l-2-2-1-14 2-7-4-5v-2l-3-1v-2h-2l-10-15-2-7-4-10-4-1-4 3-8 1-8-3-10-8-3-1-2-3-5 1v-2l-7-1-8-4v-2l-8 1-4 1-1 5-5 2 1 7v3 3l-3-1-10-18-8-19-8-26-5-28z" fill="#4F72D1"/>
<path transform="translate(1421,639)" d="m0 0h14l12 3 10 5 7 8-4 5-11 9-4 3-4-1-5-5-4-2h-13l-8 4-6 9-1 4v14l4 7 6 3h12l8-4 4-4 4 1 8 8 6 5-1 5-11 8-9 4-10 2h-16l-11-3-10-5-5-4-7-10-3-10v-16l4-13 6-10 10-10 14-7z" fill="#3033C4"/>
<path transform="translate(568,486)" d="m0 0 8 2 4 4 1 13 3 5 7 9 1 6-6 9-5 7-1-4 2-5v-10l-3-1-7 1-12-5h-8l-21 5-3 1h-33l-7-2-17-3-7-1-10 1-5 4h-3l-2 4-4 5-3 5h-2l-1 6-3 1v-2h-2l2 8-4 2v5l-5 1-1 3h-2l-1 4-3 2-2 3-1 1v6l-3 5-5 1 1-2h2l1-3v-16l6-7 8-7 4-6 1-10-3-8-5-7 1-7v-3l2-1 5 2 1-2 2 1 1-6h2v-2l4-2h10l6-1 11 2 5 3 13 2 1-4h4v2l9 2v3l18 4 9-1 10-4 10-6 9-6 12-5z" fill="#4863CE"/>
<path transform="translate(1655,641)" d="m0 0h79l1 2-4 19-2 2h-23l-3 11-6 31-4 20-2 2h-27l-1-3 12-59 1-2h-25l1-10z" fill="#3135C4"/>
<path transform="translate(1934,641)" d="m0 0h29l-5 26-8 38h39l-2 12-2 9-3 2h-64l-1-1 1-11 15-74z" fill="#3034C4"/>
<path transform="translate(1115,670)" d="m0 0 4 1v2l5 2 9 5 2 5 4 1 4 4v2h2l5 5 2 4 4 2 1 3 4 2 4 5 3 6 2 1v2l3 1 4 7v6l-3 1-20 1h-51l-1-3 12-64z" fill="#CC1D29"/>
<path transform="translate(459,516)" d="m0 0h10l11 3 11 2 6 1h31l19-5 5-1h8l12 5 8-1 3 2v10l-1 5h-2v6l-2 5 1 8v3l-3-3-1-15-1-4h-10l-9-1-13-1h-25l-23 3-20 1-17 3-14 7-5 3-2 2h-3l-1 3h-3l-2 4-4 4-4 1-1 3-3 3h-2l-1 3-1-6 7-6 1-3 5-4 2-2 1-3 3-2-1-8 5 1 1-6 3-2 4-7 4-5 7-4z" fill="#4257C9"/>
<path transform="translate(275,602)" d="m0 0 11 6 10 5 6 1 1-2 2 2h12l9 4 4 1 2-5 3-1v-5l4-1 3 8h-2l2 3v14h2l4 10v2l4 2 9 13v2l-10-3-20-8-20-11-12-8-16-13-10-9-2-6z" fill="#3034C4"/>
<path transform="translate(243,523)" d="m0 0h7l9 3v2l8 1 9 3 4 9 3 8 4 4 6 8 9 5 18-2 3 4 2 6 3 3 7 14 9 12 4 6-1 5-1 1v18l-2-2-1-14 2-7-4-5v-2l-3-1v-2h-2l-10-15-2-7-4-10-4-1-4 3-8 1-8-3-10-8-3-1-2-3-5 1v-2l-7-1-8-4v-2l-8 1-4 1-1 5-5 2 1 7v3 3l-3-1-10-18-2-12-2-9 11-6z" fill="#4862CE"/>
<path transform="translate(610,799)" d="m0 0 1 2-3 7-3 8-1 8 5 5 2 3 3 2-25 12-21 8-4-1v-2l-4-2-5-3-1-6 5-10 3-3 1-3h2l-1-4 21-9z" fill="#8F223E"/>
<path transform="translate(594,728)" d="m0 0 2 1-1 4-4 13v9l4 7v5l-15 8-19 8-14-5-2-6 2-6 6-10 5-7v-2l17-8z" fill="#8F213D"/>
<path transform="translate(651,773)" d="m0 0m-2 1 2 1-3 3-1 8 3 4v15l-5 8v4l-21 12-8 4h-5l-5-5-3-4 2-10 4-11 2-5 11-6 19-12z" fill="#542F5D"/>
<path transform="translate(1111,688)" d="m0 0 2 1 1 4 3 1v2l4 1 8 4 5 6 2 1v2l3 1 10 14 2 3 1 8 2 2h-51l-1-3z" fill="#8F223E"/>
<path transform="translate(561,821)" d="m0 0h4v3h-2l-1 4-5 7-2 5 1 6 7 3 2 6-25 8-15 4h-3v-2h-2v-5l-5-1-2-1 1-8 1-4v-7h-2l1-3 24-7z" fill="#CC1E29"/>
<path transform="translate(631,701)" d="m0 0m-1 1m-2 1 2 1-2 3-1 6 2 3 1 5v13l-5 14-18 12-12 6-3-7-2-4v-9l4-13 1-4v-2l18-12 14-11z" fill="#542F5D"/>
<path transform="translate(257,547)" d="m0 0 4 1 3 3 7 3 11 1 1 4 4 1 11 8 6 2 8-1 4-3 4 1 4 9 2 3-1 4-1-3-5-1v-2l-7 2-7-1-12-3h-20l-7 3-3 1-1 2-5-2v3h-2l1 7-4-4-9-13v-6-4l-1-6 6-2 1-4z" fill="#4257C9"/>
<path transform="translate(562,669)" d="m0 0h2l-3 15-1 7 1 9 3 8-16 8-13 6-6-2-3-3-4-2-1-7 2-6 4-4 4-8 3-5 19-10z" fill="#8F223E"/>
<path transform="translate(596,331)" d="m0 0h4l7 11v2h-3l-2 9-4 4h-15v7l-3 7-7 3-7 1-8-3v-2h-2v-2h-2v-2l-3-1v-2l-7-1-2 4-3 2h-7v2l-8 2-6 1-6-1-2 1h-8l-5-2 2-1h7l10-5 13-12 10-5 6 1 5 6 5 10 6 5 2 1h10l6-4 2-5-1-7-6-11v-7l6-4z" fill="#6AADE7"/>
<path transform="translate(556,748)" d="m0 0 3 1-7 10-6 11 1 7 14 5-2 2-24 9-6 2-7-1-6-3v-2l-5-2 1-6 3-5-1-4-2-7 8-3 20-7z" fill="#CC1E2A"/>
<path transform="translate(598,641)" d="m0 0m-1 1m-1 1m-1 1m-1 1m-1 1m-2 1 2 1-3 4 1 8 1 2v13l-3 15-1 3-22 14h-3l-4-11v-9l4-16 2-4 13-9 11-9z" fill="#542F5D"/>
<path transform="translate(210,470)" d="m0 0 1 2 5 2 10 6 12 4 12 2 13 5 4 1 19 1 1 3-5 13-1 5v16l3 12 4 9 4 6 7 6 3 1h7l5-2h7l3 4 2 9-2-1-4-9-18 2-9-5-8-10-3-9-3-12-1-1v-28l-2-2-10-1-7-2-16-3-5-1-10 2-9 3-1 5h-2l-1 3-5-28z" fill="#5D91DA"/>
<path transform="translate(532,686)" d="m0 0h2l-2 4-6 11-3 2-1 8 1 4 10 6-3 3-20 7-7-1-8-7 3-13v-11l20-7z" fill="#CC1E2A"/>
<path transform="translate(568,486)" d="m0 0 8 2 4 4v13l-10-2-3-1h-7l-9-5h-5l5-4 10-5z" fill="#527AD4"/>
<path transform="translate(304,406)" d="m0 0 2 4-2 14-4 12-5 8-10 5h-32l-7 3-1 2h-3l1 8h8l9-3 5 1v2l-9 2-5 3h-7l-4-4v-9l5-6 5-3 4-1 14 1h17l9-4 5-9z" fill="#6DB7ED"/>
<path transform="translate(305,327)" d="m0 0h7l3 2-1 3-4 1-10 7h-2l-2 5-4 3-5-1-3-5 2-6 4-2 1-2 9-4z" fill="#6FC1F1"/>
<path transform="translate(428,542)" d="m0 0 2 3 1 4-4 2v5l-5 1-1 3h-2l-1 4-3 2-2 3-1 1v6l-3 5-5 1 1-2h2l1-3v-16l6-7 8-7 3-4z" fill="#4B6AD0"/>
<path transform="translate(210,470)" d="m0 0 1 2 5 2 10 6 12 4 12 2 13 5 4 1 19 1 1 3-3 7-1-4v-3l-15-1-17-5-19-4-8-3-13-7-1 2z" fill="#6DB7ED"/>
<path transform="translate(326,575)" d="m0 0 2 2 7 14 9 12 4 6-1 5-1 1v18l-2-2-1-14 2-7-4-5v-2l-3-1v-2h-2l-10-15z" fill="#5683D8"/>
<path transform="translate(279,515)" d="m0 0h1l2 21 5 14 6 8 6 5 3 1h7l5-2h7l3 4 2 9-2-1-4-9-18 2-9-5-8-10-3-9-3-12-1-1v-14z" fill="#66A3E3"/>
<path transform="translate(391,590)" d="m0 0h1v9l-2 9-1 9-9 17-2 13 4 1v5l-5-5-1-2v-10l5-13 6-13 2-7z" fill="#609AE1"/>
<path transform="translate(304,406)" d="m0 0 2 4-2 14-4 12-5 8-5 3-5-1 3-2 7-4 4-8z" fill="#6EB9EE"/>
<path transform="translate(210,470)" d="m0 0 1 2 5 2 10 6 8 3-2 2-6-1-15-8-1 2z" fill="#6DB6EC"/>
<path transform="translate(279,515)" d="m0 0h1l2 21 5 14 3 5-1 2-6-9-4-17-1-1v-14z" fill="#66A5E4"/>
<path transform="translate(581,362)" d="m0 0 1 4-2 5-7 3-7 1-8-3v-2h-2v-2h-2v-2l4 2 5 3h10l6-4z" fill="#6BB1E9"/>
<path transform="translate(391,590)" d="m0 0h1v9l-2 9-1 9-8 15-1-3 7-15 3-21z" fill="#527CD6"/>
<path transform="translate(267,463)" d="m0 0 5 2 7 11 1 3 6 2h5l-1 2-5 1-7-5-8-12z" fill="#6EBBEF"/>
<path transform="translate(268,493)" d="m0 0h18l1 3-3 7-1-4v-3l-15-1z" fill="#6EBBEF"/>
<path transform="translate(357,653)" d="m0 0 7 6 5 3 16 4v1h-7l-16-5-5-7z" fill="#75C2F2"/>
<path transform="translate(414,554)" d="m0 0 2 1-5 5-1 20-6 2 1-2h2l1-3v-16z" fill="#64A0E2"/>
<path transform="translate(345,606)" d="m0 0 3 3-1 5-1 1v18l-2-2-1-14 2-9z" fill="#69AEE8"/>
<path transform="translate(581,508)" d="m0 0 6 5 5 9-1 3-1-5h-2v-2h-2l-5-6z" fill="#5B8CDA"/>
<path transform="translate(346,359)" d="m0 0h7l5 2-3 1h-3v-2l-5 3-2 12h-1v-14z" fill="#73CCF8"/>
<path transform="translate(1105,722)" d="m0 0h1v12l2 3h-6z" fill="#60335D"/>
<path transform="translate(402,582)" d="m0 0h2v2l-3 1-3 5h-6l1-3z" fill="#5786DA"/>
<path transform="translate(554,366)" d="m0 0 4 2 5 3 9 1v1l-10 1-4-2v-2h-2v-2h-2z" fill="#6EB8ED"/>
<path transform="translate(379,634)" d="m0 0h1v7h2l-1 7-3-1v-10z" fill="#3B4AC3"/>
<path transform="translate(279,531)" d="m0 0h1l4 17-1 2-4-9-1-5z" fill="#547ED4"/>
<path transform="translate(346,633)" d="m0 0 2 2 6 12 3 4-1 2-7-9-3-7z" fill="#68A9E6"/>
<path transform="translate(314,564)" d="m0 0h6l3 4 3 7-1 4-4-9-2-5h-5z" fill="#4C6DD0"/>
<path transform="translate(245,448)" d="m0 0 2 1-2 5h-3v8l-2-1v-7z" fill="#6CB3EA"/>
<path transform="translate(602,575)" d="m0 0v3l-5 7h-1l1-9z" fill="#5888DB"/>
</svg>
