<svg width="129" height="129" viewBox="0 0 129 129" fill="none" xmlns="http://www.w3.org/2000/svg"><path fill-rule="evenodd" clip-rule="evenodd" d="M7.525 7.831c-7.03 7.03-7.03 18.343-7.03 40.97v32c0 22.628 0 33.942 7.03 40.971 7.03 7.03 18.343 7.03 40.97 7.03h32c22.628 0 33.942 0 40.971-7.03 7.03-7.029 7.03-18.343 7.03-40.97v-32c0-22.628 0-33.941-7.03-40.97-7.029-7.03-18.343-7.03-40.97-7.03h-32c-22.628 0-33.942 0-40.971 7.03zm16.97 92.374V29.398h44.836a12.15 12.15 0 018.87 3.846l23.013 24.577a12.149 12.149 0 013.282 8.305v34.079H80.365V77.588a12.15 12.15 0 00-3.452-8.484l-9.842-10.09a12.151 12.151 0 00-8.698-3.668h-7.478v44.859h-26.4z" fill="#2E2D2C"/></svg>