<svg xmlns="http://www.w3.org/2000/svg" viewBox="0 0 120 136"><path fill="#F38844" d="M120 90c0 4.4-3 10-6.7 12.4l-46.7 31.1c-3.7 2.4-9.7 2.4-13.3 0L6.7 102.4C3 100 0 94.4 0 90V46c0-4.4 3-10 6.7-12.4L53.3 2.4C57 0 63 0 66.7 2.4l46.7 31.1c3.7 2.4 6.7 8 6.7 12.4V90z"/><path fill="#fff" d="M44 54h32v6H44zm-4 10h40v6H40zm-5 10h50v6H35zm25-43c20.4 0 37 16.6 37 37s-16.6 37-37 37-37-16.6-37-37 16.6-37 37-37m0-3c-22.1 0-40 17.9-40 40s17.9 40 40 40 40-17.9 40-40-17.9-40-40-40z"/><path opacity=".08" d="M113.3 33.6L66.7 2.4C64.9 1.2 62.5.6 60 .6v134.8c2.4 0 4.8-.6 6.7-1.8l46.7-31.1c3.7-2.4 6.7-8 6.7-12.4V46c-.1-4.4-3.1-10-6.8-12.4z"/><path fill="#F38844" d="M60 4.6c1.7 0 3.3.4 4.4 1.2l46.7 31.1c2.6 1.7 4.9 6 4.9 9.1v44c0 3.1-2.3 7.4-4.9 9.1l-46.7 31.1c-1.1.7-2.7 1.2-4.4 1.2s-3.3-.4-4.4-1.2L8.9 99.1C6.3 97.4 4 93.1 4 90V46c0-3.1 2.3-7.4 4.9-9.1L55.6 5.8c1.1-.8 2.7-1.2 4.4-1.2m0-4c-2.4 0-4.8.6-6.7 1.8L6.7 33.6C3 36 0 41.6 0 46v44c0 4.4 3 10 6.7 12.4l46.7 31.1c1.8 1.2 4.2 1.8 6.7 1.8s4.8-.6 6.7-1.8l46.7-31.1c3.7-2.4 6.7-8 6.7-12.4V46c0-4.4-3-10-6.7-12.4L66.7 2.4C64.8 1.2 62.4.6 60 .6z"/></svg>